<?xml version="1.0" standalone="no"?><!DOCTYPE svg PUBLIC "-//W3C//DTD SVG 1.1//EN"
        "http://www.w3.org/Graphics/SVG/1.1/DTD/svg11.dtd">
<svg t="1728473539807" class="icon" viewBox="0 0 6026 1024" version="1.1" xmlns="http://www.w3.org/2000/svg"
     xmlns:xlink="http://www.w3.org/1999/xlink" width="1176.953125" height="200">
    <path d="M5941.198573 919.302026H4050.261991l-269.705391 98.332681H2228.240206l-245.758561-98.332681H79.549705V6.367487h3491.190524l419.544971 161.469226h1950.869488z"
          fill="#3ca2c2" opacity=".1"></path>
    <path d="M2228.225578 1023.998098a25.921677 25.921677 0 0 1-9.318346-1.594505l-241.735727-96.738176H79.578962c-7.782354 0-14.057975-2.852555-14.057974-6.348763V6.352859c0-3.496208 6.27562-6.348763 14.057974-6.348763h3491.205152a26.228875 26.228875 0 0 1 9.113547 1.462849l415.609908 159.962491h1945.676375c7.782354 0 14.087232 2.837926 14.087232 6.348763v751.465313c0 3.496208-6.304877 6.348763-14.087232 6.348763H4055.235676L3789.377577 1022.53525a26.536073 26.536073 0 0 1-8.777092 1.462848zM93.651566 912.953263h1888.873965a25.629107 25.629107 0 0 1 9.318345 1.594505l241.735727 96.723548h1542.003311l265.843472-96.986861a26.419045 26.419045 0 0 1 8.777091-1.462848h1876.95175V174.083076h-1936.811513a25.921677 25.921677 0 0 1-9.113547-1.462848L3565.60563 12.71625H93.651566z m3790.240657 104.681444l142.349795-53.818199h1914.868784v53.818199z m-3804.342518 0v-53.818199h1914.868785l142.349795 53.818199z m2175.621543-103.745221c-7.753097 0-14.057975-2.852555-14.057975-6.363391s6.304877-6.348763 14.057975-6.348763h1514.896727c7.782354 0 14.057975 2.852555 14.057975 6.348763s-6.27562 6.363391-14.057975 6.363391zM5595.395798 118.055976L5301.714319 6.352859h260.723501l293.666851 111.703117z m-393.023526 0L4908.690792 6.352859h260.708873l293.68148 111.703117z m-392.99427 0L4515.696522 6.352859h260.723502L5070.086875 118.055976z m-393.08204 0L4122.614482 6.352859h260.723501l293.666852 111.703117z m-392.99427 0L3729.590955 6.352859h260.752759l293.68148 111.703117zM197.938041 87.599469V49.463006h1488.155855l110.635237 38.136463z"
          fill="#14dcdf"></path>
</svg>
